<?xml version="1.0" encoding="UTF-8" standalone="no"?>
<svg
   xmlns:dc="http://purl.org/dc/elements/1.1/"
   xmlns:cc="http://creativecommons.org/ns#"
   xmlns:rdf="http://www.w3.org/1999/02/22-rdf-syntax-ns#"
   xmlns:svg="http://www.w3.org/2000/svg"
   xmlns="http://www.w3.org/2000/svg"
   version="1.1"
   id="svg2"
   viewBox="0 0 516.4302 516.43019"
   height="145.74808mm"
   width="145.74808mm">
  <defs
     id="defs4" />
  <metadata
     id="metadata7">
    <rdf:RDF>
      <cc:Work
         rdf:about="">
        <dc:format>image/svg+xml</dc:format>
        <dc:type
           rdf:resource="http://purl.org/dc/dcmitype/StillImage" />
        <dc:title></dc:title>
      </cc:Work>
    </rdf:RDF>
  </metadata>
  <g
     transform="translate(-100.63885,-254.82292)"
     id="layer1">
    <path
       id="path4185"
       d="m 357.56658,265.96746 a 245.5,245.5 0 0 0 -245.49999,245.5 245.5,245.5 0 0 0 245.49999,245.5 245.5,245.5 0 0 0 245.5,-245.5 245.5,245.5 0 0 0 -245.5,-245.5 z m -26.22851,113.82422 28.11719,0 28.11523,0 0.33398,69.28516 c 0.18368,38.10715 1.14965,77.43979 2.14454,87.40625 l 1.80859,18.12109 34.73242,-33.12109 c 19.10289,-18.21646 35.49491,-33.1211 36.42774,-33.1211 0.93282,0 1.69726,11.35195 1.69726,25.22656 l 0,25.22657 -52.59765,51.91601 c -28.92792,28.55396 -53.68934,51.91602 -55.02735,51.91602 -1.33802,0 -25.93635,-23.52787 -54.66211,-52.28516 l -52.22851,-52.28515 0.82812,-26.32032 0.83008,-26.31836 36.55273,34.67188 c 20.10399,19.06899 37.09812,34.12453 37.76563,33.45703 0.66751,-0.66751 2.10165,-40.03944 3.1875,-87.49414 l 1.97461,-86.28125 z"
       style="opacity:1;fill:#fc635e;fill-opacity:1" />
    <path
       id="path4161"
       d="m 302.72806,587.70519 -51.98624,-52.20014 1.67059,-23.43094 1.67058,-23.43092 34.49252,32.71664 c 18.97089,17.99415 35.31326,32.71664 36.31639,32.71664 2.70092,0 5.53668,-46.83153 5.53668,-91.43642 0,-21.52149 0.83152,-48.96683 1.84782,-60.98964 l 1.84781,-21.85965 26.50013,0 26.50012,0 0.93778,85.47995 c 0.51577,47.01398 1.8506,86.3911 2.96629,87.50472 1.11569,1.11362 17.18712,-12.22614 35.71429,-29.64392 37.86465,-35.59735 36.86854,-35.57479 37.63343,-0.85234 l 0.33804,15.34555 -51.80993,50.36873 c -28.49546,27.70281 -53.24546,50.71594 -55,51.14031 -1.75454,0.42436 -26.58387,-22.71849 -55.1763,-51.42857 z"
       style="opacity:1;fill:#ffffff;fill-opacity:1" />
  </g>
</svg>
