<?xml version="1.0" encoding="UTF-8" standalone="no"?>
<svg
   xmlns:dc="http://purl.org/dc/elements/1.1/"
   xmlns:cc="http://creativecommons.org/ns#"
   xmlns:rdf="http://www.w3.org/1999/02/22-rdf-syntax-ns#"
   xmlns:svg="http://www.w3.org/2000/svg"
   xmlns="http://www.w3.org/2000/svg"
   version="1.1"
   id="svg2"
   viewBox="0 0 516.4302 516.43019"
   height="145.74808mm"
   width="145.74808mm">
  <defs
     id="defs4" />
  <metadata
     id="metadata7">
    <rdf:RDF>
      <cc:Work
         rdf:about="">
        <dc:format>image/svg+xml</dc:format>
        <dc:type
           rdf:resource="http://purl.org/dc/dcmitype/StillImage" />
        <dc:title></dc:title>
      </cc:Work>
    </rdf:RDF>
  </metadata>
  <g
     transform="translate(-100.63885,-254.82292)"
     id="layer1">
    <path
       id="path4149"
       d="m 608.33857,539.01118 c -0.2102,2.19825 -1.1217,8.71558 -2.0256,14.48294 -14.0293,89.51409 -78.2312,165.41473 -164.24577,194.17452 -24.9674,8.34807 -45.6155,11.89617 -72.631,12.48067 -22.3681,0.48395 -38.4917,-0.96214 -58.3016,-5.22891 C 263.45,744.64982 221.4391,721.23623 186.9839,685.72837 173.922,672.26743 167.5873,664.37385 157.1838,648.59454 136.67127,617.48269 124.1996,583.10545 118.78706,542.75686 c -1.82253,-13.58636 -1.20797,-50.33661 1.07849,-64.49306 10.04654,-62.20233 40.91845,-116.08617 88.75835,-154.91889 34.8125,-28.25803 76.6402,-46.29396 122.7219,-52.91717 14.1941,-2.04007 50.9494,-2.01581 64.5021,0.0426 40.2484,6.11299 74.40367,19.18028 105.15427,40.23042 15.5961,10.67622 23.3784,17.14709 36.6103,30.44099 40.1708,40.35903 64.263,90.74582 70.3662,147.16467 1.2305,11.37535 1.4302,39.50913 0.3599,50.70477 z m -36.4257,-49.51721 c -6.7812,-55.80587 -35.6291,-106.4285 -80.4426,-141.16132 -20.1428,-15.61175 -45.31597,-28.5293 -68.97807,-35.39591 -73.7135,-21.3912 -151.164,-1.80027 -206.0225,52.11287 -75.2824,73.9851 -84.40189,190.52194 -21.494,274.66851 34.8888,46.66785 86.3239,76.41788 144.4283,83.53723 14.694,1.80042 44.358,1.06215 58.5217,-1.45649 43.694,-7.7698 81.33527,-27.07028 112.47047,-57.66901 34.6859,-34.08816 56.6491,-79.08027 61.9624,-126.93143 1.1036,-9.93896 0.8504,-37.038 -0.4457,-47.70445 z m -155.43967,111.85215 -54.4672,53.52173 -53.5287,-54.46031 -53.5288,-54.46031 0.2477,-28.49764 0.2477,-28.49765 39.1553,39.83229 39.1553,39.83229 0.793,-91.24181 0.7929,-91.2418 29.4989,0.25637 29.4989,0.25637 -0.793,91.24174 -0.7929,91.24175 39.3373,-38.64998 39.33737,-38.64998 -0.2433,27.9976 -0.2433,27.99761 -54.46717,53.52173 z"
       style="fill:#fc635e;fill-opacity:1" />
    <path
       transform="translate(100.63885,254.82292)"
       id="path4147"
       d="m 203.04647,341.3682 -52.11389,-52.17107 0.0948,-27.11464 0.0948,-27.11465 36.33375,37.9379 c 19.98356,20.86584 37.29804,37.90156 38.47661,37.85714 1.17857,-0.0444 2.14285,-13.37345 2.14285,-29.62008 0,-16.24663 0.84732,-56.74663 1.88293,-90 l 1.88293,-60.46067 26.6885,0 26.6885,0 0,92.10316 0,92.10316 37.89545,-37.81745 c 20.84249,-20.79959 38.52107,-37.81763 39.28571,-37.81786 0.76465,-2.3e-4 0.96794,11.24977 0.45176,25 l -0.93852,25.00041 -51.88966,52.14286 c -28.53932,28.67857 -52.55859,52.14286 -53.37617,52.14286 -0.81757,0 -24.93775,-23.47698 -53.60039,-52.17107 z"
       style="opacity:1;fill:none;fill-opacity:1" />
  </g>
</svg>
