<?xml version="1.0" encoding="UTF-8" standalone="no"?>
<svg
   xmlns:dc="http://purl.org/dc/elements/1.1/"
   xmlns:cc="http://creativecommons.org/ns#"
   xmlns:rdf="http://www.w3.org/1999/02/22-rdf-syntax-ns#"
   xmlns:svg="http://www.w3.org/2000/svg"
   xmlns="http://www.w3.org/2000/svg"
   version="1.1"
   id="svg2"
   viewBox="0 0 59.903562 31.338984"
   height="8.8445578mm"
   width="16.906116mm">
  <defs
     id="defs4" />
  <metadata
     id="metadata7">
    <rdf:RDF>
      <cc:Work
         rdf:about="">
        <dc:format>image/svg+xml</dc:format>
        <dc:type
           rdf:resource="http://purl.org/dc/dcmitype/StillImage" />
        <dc:title></dc:title>
      </cc:Work>
    </rdf:RDF>
  </metadata>
  <g
     transform="translate(-252.54822,-442.04986)"
     id="layer1">
    <g
       transform="translate(-37.699286,-75.626826)"
       id="layer1-2">
      <path
         id="path4207"
         d="m 299.37894,547.02704 c -10.17132,-4.43035 -12.33048,-18.10147 -4.01235,-25.40489 13.97285,-12.26832 33.77157,6.713 21.81883,20.91803 -4.60923,5.47776 -11.52866,7.22131 -17.80648,4.48686 z m 10.26478,-0.57974 c 2.44698,-0.0275 8.27222,-6.25321 9.25057,-9.88653 1.95075,-7.24455 -2.57364,-15.0071 -9.9859,-17.1329 -9.80321,-2.81153 -19.65953,7.05429 -16.9819,16.99825 1.66536,6.18467 9.15867,11.58837 14.50203,10.45794 1.1,-0.23271 2.54684,-0.42926 3.2152,-0.43676 z m -7.04916,-8.61443 c -4.30867,-2.51056 -7.55218,-4.84642 -7.2078,-5.1908 1.15686,-1.15686 15.03805,-9.01932 15.36667,-8.70385 0.1787,0.17155 -0.92281,2.19734 -2.44781,4.50176 l -2.77271,4.18986 2.75549,4.9019 c 1.51552,2.69604 2.61703,4.89377 2.44781,4.88384 -0.16923,-0.01 -3.83297,-2.07216 -8.14165,-4.58271 z"
         style="fill:#ff635e;fill-opacity:1" />
    </g>
    <g
       id="layer1-27"
       transform="translate(-194.05644,-110.26969)">
      <path
         style="fill:#ff635e;fill-opacity:1"
         d="m 485.02186,582.38419 c -10.17131,-4.43035 -12.33048,-18.10147 -4.01234,-25.40489 13.97284,-12.26832 33.77156,6.713 21.81882,20.91803 -4.60923,5.47776 -11.52866,7.22131 -17.80648,4.48686 z m 10.26478,-0.57975 c 2.44698,-0.0275 8.27222,-6.2532 9.25057,-9.88653 1.95075,-7.24454 -2.57364,-15.00709 -9.9859,-17.13289 -9.80321,-2.81153 -19.65953,7.05429 -16.9819,16.99825 1.66536,6.18467 9.15867,11.58837 14.50203,10.45794 1.1,-0.23271 2.54684,-0.42926 3.2152,-0.43677 z m -7.14947,-8.78321 2.82988,-5.03424 -2.77271,-4.18986 c -1.525,-2.30442 -2.62651,-4.32355 -2.44781,-4.48696 0.1787,-0.16342 3.86948,1.77229 8.20172,4.30157 8.98697,5.24683 9.20986,4.32489 -2.67412,11.06139 l -5.96685,3.38234 2.82989,-5.03424 z"
         id="path4228" />
    </g>
  </g>
</svg>
