<?xml version="1.0" encoding="UTF-8" standalone="no"?>
<svg
   xmlns:dc="http://purl.org/dc/elements/1.1/"
   xmlns:cc="http://creativecommons.org/ns#"
   xmlns:rdf="http://www.w3.org/1999/02/22-rdf-syntax-ns#"
   xmlns:svg="http://www.w3.org/2000/svg"
   xmlns="http://www.w3.org/2000/svg"
   version="1.1"
   id="svg4188"
   viewBox="0 0 30.617794 30.624697"
   height="8.6429701mm"
   width="8.6410217mm">
  <defs
     id="defs4190" />
  <metadata
     id="metadata4193">
    <rdf:RDF>
      <cc:Work
         rdf:about="">
        <dc:format>image/svg+xml</dc:format>
        <dc:type
           rdf:resource="http://purl.org/dc/dcmitype/StillImage" />
        <dc:title></dc:title>
      </cc:Work>
    </rdf:RDF>
  </metadata>
  <g
     transform="translate(-290.24751,-517.67669)"
     id="layer1">
    <path
       id="path4207"
       d="m 299.37894,547.02704 c -10.17132,-4.43035 -12.33048,-18.10147 -4.01235,-25.40489 13.97285,-12.26832 33.77157,6.713 21.81883,20.91803 -4.60923,5.47776 -11.52866,7.22131 -17.80648,4.48686 z m 10.26478,-0.57974 c 2.44698,-0.0275 8.27222,-6.25321 9.25057,-9.88653 1.95075,-7.24455 -2.57364,-15.0071 -9.9859,-17.1329 -9.80321,-2.81153 -19.65953,7.05429 -16.9819,16.99825 1.66536,6.18467 9.15867,11.58837 14.50203,10.45794 1.1,-0.23271 2.54684,-0.42926 3.2152,-0.43676 z m -7.04916,-8.61443 c -4.30867,-2.51056 -7.55218,-4.84642 -7.2078,-5.1908 1.15686,-1.15686 15.03805,-9.01932 15.36667,-8.70385 0.1787,0.17155 -0.92281,2.19734 -2.44781,4.50176 l -2.77271,4.18986 2.75549,4.9019 c 1.51552,2.69604 2.61703,4.89377 2.44781,4.88384 -0.16923,-0.01 -3.83297,-2.07216 -8.14165,-4.58271 z"
       style="fill:#ff635e;fill-opacity:1" />
  </g>
</svg>
