<?xml version="1.0" encoding="UTF-8" standalone="no"?>
<!-- Created with Inkscape (http://www.inkscape.org/) -->

<svg
   xmlns:dc="http://purl.org/dc/elements/1.1/"
   xmlns:cc="http://creativecommons.org/ns#"
   xmlns:rdf="http://www.w3.org/1999/02/22-rdf-syntax-ns#"
   xmlns:svg="http://www.w3.org/2000/svg"
   xmlns="http://www.w3.org/2000/svg"
   xmlns:sodipodi="http://sodipodi.sourceforge.net/DTD/sodipodi-0.dtd"
   xmlns:inkscape="http://www.inkscape.org/namespaces/inkscape"
   width="8.6410208mm"
   height="8.6429701mm"
   viewBox="0 0 30.61779 30.624697"
   id="svg4209"
   version="1.1"
   inkscape:version="0.91 r13725"
   sodipodi:docname="c_arrow_right.svg">
  <defs
     id="defs4211" />
  <sodipodi:namedview
     id="base"
     pagecolor="#ffffff"
     bordercolor="#666666"
     borderopacity="1.0"
     inkscape:pageopacity="0.0"
     inkscape:pageshadow="2"
     inkscape:zoom="5.6"
     inkscape:cx="-24.031231"
     inkscape:cy="12.741429"
     inkscape:document-units="px"
     inkscape:current-layer="layer1"
     showgrid="false"
     fit-margin-top="0"
     fit-margin-left="0"
     fit-margin-right="0"
     fit-margin-bottom="0"
     inkscape:window-width="1920"
     inkscape:window-height="1017"
     inkscape:window-x="-8"
     inkscape:window-y="-8"
     inkscape:window-maximized="1" />
  <metadata
     id="metadata4214">
    <rdf:RDF>
      <cc:Work
         rdf:about="">
        <dc:format>image/svg+xml</dc:format>
        <dc:type
           rdf:resource="http://purl.org/dc/dcmitype/StillImage" />
        <dc:title></dc:title>
      </cc:Work>
    </rdf:RDF>
  </metadata>
  <g
     inkscape:label="Layer 1"
     inkscape:groupmode="layer"
     id="layer1"
     transform="translate(-475.89043,-553.03384)">
    <path
       style="fill:#ff635e;fill-opacity:1"
       d="m 485.02186,582.38419 c -10.17131,-4.43035 -12.33048,-18.10147 -4.01234,-25.40489 13.97284,-12.26832 33.77156,6.713 21.81882,20.91803 -4.60923,5.47776 -11.52866,7.22131 -17.80648,4.48686 z m 10.26478,-0.57975 c 2.44698,-0.0275 8.27222,-6.2532 9.25057,-9.88653 1.95075,-7.24454 -2.57364,-15.00709 -9.9859,-17.13289 -9.80321,-2.81153 -19.65953,7.05429 -16.9819,16.99825 1.66536,6.18467 9.15867,11.58837 14.50203,10.45794 1.1,-0.23271 2.54684,-0.42926 3.2152,-0.43677 z m -7.14947,-8.78321 2.82988,-5.03424 -2.77271,-4.18986 c -1.525,-2.30442 -2.62651,-4.32355 -2.44781,-4.48696 0.1787,-0.16342 3.86948,1.77229 8.20172,4.30157 8.98697,5.24683 9.20986,4.32489 -2.67412,11.06139 l -5.96685,3.38234 2.82989,-5.03424 z"
       id="path4228"
       inkscape:connector-curvature="0" />
  </g>
</svg>
