<?xml version="1.0" encoding="UTF-8" standalone="no"?>
<svg
   xmlns:dc="http://purl.org/dc/elements/1.1/"
   xmlns:cc="http://creativecommons.org/ns#"
   xmlns:rdf="http://www.w3.org/1999/02/22-rdf-syntax-ns#"
   xmlns:svg="http://www.w3.org/2000/svg"
   xmlns="http://www.w3.org/2000/svg"
   version="1.1"
   id="svg2"
   viewBox="0 0 73.868161 83.981827"
   height="23.701538mm"
   width="20.847237mm">
  <defs
     id="defs4" />
  <metadata
     id="metadata7">
    <rdf:RDF>
      <cc:Work
         rdf:about="">
        <dc:format>image/svg+xml</dc:format>
        <dc:type
           rdf:resource="http://purl.org/dc/dcmitype/StillImage" />
        <dc:title></dc:title>
      </cc:Work>
    </rdf:RDF>
  </metadata>
  <g
     transform="translate(-218.38753,-548.72755)"
     id="layer1">
    <g
       transform="translate(-18.94036,-14.647212)"
       id="g4184">
      <path
         style="fill:#ff8682;fill-opacity:1"
         d="m 255.04569,637.10657 -17.7158,-10.23181 -0.001,-21.5 -0.001,-21.5 17.80226,-10.25 c 9.79125,-5.6375 18.40057,-10.25 19.13182,-10.25 0.73125,0 9.34057,4.6125 19.13181,10.25 l 17.80227,10.25 0,21.5 0,21.5 -17.80227,10.25 c -9.79124,5.6375 -18.43891,10.24181 -19.21704,10.23181 -0.77812,-0.01 -9.38688,-4.62251 -19.13057,-10.25 z m 18.2158,-24.17431 0,-6.4425 -4.25,-0.3075 c -3.78325,-0.27373 -4.28425,-0.60434 -4.56188,-3.01038 -0.21606,-1.87252 0.32157,-3.09848 1.75,-3.99055 2.92057,-1.82393 2.98214,-8.80657 0.0777,-8.80657 -1.09133,0 -3.44932,1.30906 -5.23998,2.90902 l -3.25576,2.90901 -0.36795,11.59099 -0.36794,11.59098 8.10792,0 8.10793,0 0,-6.4425 z m 18,-0.0575 0,-6.5 -4,0 c -3.91153,0 -4,-0.0781 -4,-3.53138 0,-2.21652 0.55851,-3.74571 1.5,-4.10699 0.97789,-0.37526 1.5,-1.93065 1.5,-4.46862 0,-4.58273 -2.08127,-5.19012 -6.3307,-1.84752 -3.41585,2.68691 -4.65692,7.53134 -4.66372,18.20451 l -0.006,8.75 8,0 8,0 0,-6.5 z"
         id="path4182" />
      <path
         style="fill:#ff635e;fill-opacity:1"
         d="m 256.39183,634.92817 -16.14108,-9.55492 -9.1e-4,-20.07766 -9.1e-4,-20.07767 16.21985,-9.5719 c 8.92093,-5.26455 16.76498,-9.57191 17.43123,-9.57191 0.66625,0 8.51031,4.30736 17.43123,9.57191 l 16.21987,9.5719 0,20.07767 0,20.07766 -16.21987,9.57191 c -8.92092,5.26454 -16.79992,9.56426 -17.50888,9.55492 -0.70895,-0.01 -8.55251,-4.31671 -17.4301,-9.57191 z m 16.59663,-22.57505 0,-6.01629 -3.87222,-0.28717 c -3.44697,-0.25561 -3.90344,-0.56435 -4.15639,-2.81122 -0.19685,-1.74864 0.29299,-2.8935 1.59445,-3.72655 2.66096,-1.70328 2.71707,-8.22398 0.0708,-8.22398 -0.99432,0 -3.14271,1.22246 -4.77421,2.71658 l -2.96636,2.71656 -0.33524,10.82419 -0.33524,10.82418 7.38722,0 7.38724,0 0,-6.0163 z m 16.40002,-0.0537 0,-6.07 -3.64445,0 c -3.56384,0 -3.64445,-0.0729 -3.64445,-3.29776 0,-2.06988 0.50887,-3.49791 1.36667,-3.83529 0.89097,-0.35043 1.36667,-1.80294 1.36667,-4.173 0,-4.27956 -1.89627,-4.84676 -5.76798,-1.7253 -3.11222,2.50915 -4.24297,7.0331 -4.24917,17.00019 l -0.006,8.17115 7.2889,0 7.2889,0 0,-6.06999 z"
         id="path4147" />
    </g>
  </g>
</svg>
