<?xml version="1.0" encoding="UTF-8" standalone="no"?>
<svg
   xmlns:dc="http://purl.org/dc/elements/1.1/"
   xmlns:cc="http://creativecommons.org/ns#"
   xmlns:rdf="http://www.w3.org/1999/02/22-rdf-syntax-ns#"
   xmlns:svg="http://www.w3.org/2000/svg"
   xmlns="http://www.w3.org/2000/svg"
   version="1.1"
   id="svg2"
   viewBox="0 0 36.639526 36.769894"
   height="10.377281mm"
   width="10.340488mm">
  <defs
     id="defs4" />
  <metadata
     id="metadata7">
    <rdf:RDF>
      <cc:Work
         rdf:about="">
        <dc:format>image/svg+xml</dc:format>
        <dc:type
           rdf:resource="http://purl.org/dc/dcmitype/StillImage" />
        <dc:title></dc:title>
      </cc:Work>
    </rdf:RDF>
  </metadata>
  <g
     transform="translate(-263.7603,-560.15191)"
     id="layer1">
    <path
       id="path4147"
       d="m 273.71284,594.93705 c -12.31097,-6.25575 -13.44984,-24.06418 -2.02254,-31.62641 11.77445,-7.79196 27.27315,-0.38805 28.62436,13.67419 1.36087,14.1629 -13.85341,24.43025 -26.60182,17.95222 z m 9.83173,-10.41127 c 0,-4.22222 0.34848,-5.5 1.5,-5.5 0.825,0 1.5,-0.1882 1.5,-0.41821 0,-0.23002 0.25045,-1.07088 0.55656,-1.86858 0.34774,-0.9062 -0.21505,-1.65215 -1.5,-1.98817 -2.64817,-0.69251 -2.65304,-2.7563 -0.008,-3.44795 2.63596,-0.68932 2.13527,-3.67615 -0.68399,-4.08031 -2.71689,-0.38948 -5.36443,2.2631 -5.36443,5.37465 0,1.49206 -0.57843,2.42857 -1.5,2.42857 -0.825,0 -1.5,0.68912 -1.5,1.53139 0,0.84226 0.675,1.7904 1.5,2.10698 1.07675,0.41319 1.5,2.09732 1.5,5.96862 0,4.72634 0.24723,5.39301 2,5.39301 1.75758,0 2,-0.66667 2,-5.5 z"
       style="fill:#555555" />
  </g>
</svg>
