<?xml version="1.0" encoding="UTF-8" standalone="no"?>
<svg
   xmlns:dc="http://purl.org/dc/elements/1.1/"
   xmlns:cc="http://creativecommons.org/ns#"
   xmlns:rdf="http://www.w3.org/1999/02/22-rdf-syntax-ns#"
   xmlns:svg="http://www.w3.org/2000/svg"
   xmlns="http://www.w3.org/2000/svg"
   version="1.1"
   id="svg2"
   viewBox="0 0 36.639526 36.769894"
   height="10.377281mm"
   width="10.340488mm">
  <defs
     id="defs4" />
  <metadata
     id="metadata7">
    <rdf:RDF>
      <cc:Work
         rdf:about="">
        <dc:format>image/svg+xml</dc:format>
        <dc:type
           rdf:resource="http://purl.org/dc/dcmitype/StillImage" />
        <dc:title></dc:title>
      </cc:Work>
    </rdf:RDF>
  </metadata>
  <g
     transform="translate(-263.7603,-560.15191)"
     id="layer1">
    <path
       id="path4160"
       d="m 273.61131,595.14015 c -12.31097,-6.25576 -13.44984,-24.06418 -2.02254,-31.62641 11.77445,-7.79196 27.27315,-0.38805 28.62436,13.67419 1.36087,14.1629 -13.85341,24.43025 -26.60182,17.95222 z m 3.83173,-15.91127 c 0,-7.86667 -0.0417,-8 -2.5,-8 -2.45833,0 -2.5,0.13333 -2.5,8 0,7.86667 0.0417,8 2.5,8 2.45833,0 2.5,-0.13333 2.5,-8 z m 7,2.5 c 0,-4.83333 0.24242,-5.5 2,-5.5 1.75758,0 2,0.66667 2,5.5 0,5.2 0.13636,5.5 2.5,5.5 2.40533,0 2.5,-0.2415 2.5,-6.37756 0,-7.76291 -1.15864,-9.01221 -8.63896,-9.31497 l -5.36104,-0.21698 0,7.95475 c 0,7.81841 0.0428,7.95476 2.5,7.95476 2.36364,0 2.5,-0.3 2.5,-5.5 z m -7.5,-13.5 c 0,-0.80994 -0.7875,-1.62427 -1.75,-1.80963 -1.22785,-0.23646 -1.75,0.30348 -1.75,1.80963 0,1.50615 0.52215,2.04609 1.75,1.80963 0.9625,-0.18536 1.75,-0.9997 1.75,-1.80963 z"
       style="fill:#545454" />
  </g>
</svg>
