<?xml version="1.0" encoding="UTF-8" standalone="no"?>
<svg
   xmlns:dc="http://purl.org/dc/elements/1.1/"
   xmlns:cc="http://creativecommons.org/ns#"
   xmlns:rdf="http://www.w3.org/1999/02/22-rdf-syntax-ns#"
   xmlns:svg="http://www.w3.org/2000/svg"
   xmlns="http://www.w3.org/2000/svg"
   viewBox="0 0 208.83038 241.27756"
   height="241.27756"
   width="208.83038"
   version="1.1"
   id="svg2">
  <metadata
     id="metadata8">
    <rdf:RDF>
      <cc:Work
         rdf:about="">
        <dc:format>image/svg+xml</dc:format>
        <dc:type
           rdf:resource="http://purl.org/dc/dcmitype/StillImage" />
        <dc:title></dc:title>
      </cc:Work>
    </rdf:RDF>
  </metadata>
  <defs
     id="defs6" />
  <g
     transform="translate(259.03316,-1.7881356)"
     id="g3355">
    <path
       style="fill:#ff8783;fill-opacity:1"
       d="m -206.8249,212.92691 -52.20626,-30.13877 -10e-4,-60.5 -0.001,-60.500004 52.01134,-30 c 28.60624,-16.5 52.18783,-30.0000004 52.40353,-30.0000004 0.2157,0 23.79729,13.5000004 52.40353,30.0000004 l 52.011336,30 3.2e-4,60.500004 3.2e-4,60.5 -48.57472,28 c -26.716086,15.4 -50.209576,28.96245 -52.207746,30.13877 l -3.63304,2.13878 -52.20626,-30.13878 z"
       id="path3338" />
    <path
       style="fill:#ff635e;fill-opacity:1"
       d="m -200.10956,202.18174 -45.32084,-26.42312 -8.7e-4,-53.0413 -8.7e-4,-53.041293 45.15163,-26.301468 c 24.8334,-14.465807 45.30485,-26.301467 45.49209,-26.301467 0.18726,0 20.6587,11.83566 45.4921,26.301467 l 45.151632,26.301468 2.77e-4,53.041293 2.78e-4,53.0413 -42.168257,24.54804 c -23.19255,13.50142 -43.58751,25.39182 -45.32214,26.42312 l -3.15389,1.87511 -45.32083,-26.42315 z"
       id="path3338-2" />
  </g>
</svg>
