<?xml version="1.0" encoding="UTF-8" standalone="no"?>
<svg
   xmlns:dc="http://purl.org/dc/elements/1.1/"
   xmlns:cc="http://creativecommons.org/ns#"
   xmlns:rdf="http://www.w3.org/1999/02/22-rdf-syntax-ns#"
   xmlns:svg="http://www.w3.org/2000/svg"
   xmlns="http://www.w3.org/2000/svg"
   xmlns:sodipodi="http://sodipodi.sourceforge.net/DTD/sodipodi-0.dtd"
   xmlns:inkscape="http://www.inkscape.org/namespaces/inkscape"
   version="1.1"
   id="svg4153"
   viewBox="0 0 119.90108 257.5068"
   height="72.674141mm"
   width="33.838749mm"
   inkscape:version="0.91 r13725"
   sodipodi:docname="mouse.svg">
  <sodipodi:namedview
     pagecolor="#ffffff"
     bordercolor="#666666"
     borderopacity="1"
     objecttolerance="10"
     gridtolerance="10"
     guidetolerance="10"
     inkscape:pageopacity="0"
     inkscape:pageshadow="2"
     inkscape:window-width="1920"
     inkscape:window-height="1017"
     id="namedview7"
     showgrid="false"
     inkscape:zoom="0.91648066"
     inkscape:cx="59.950539"
     inkscape:cy="128.7534"
     inkscape:window-x="-8"
     inkscape:window-y="-8"
     inkscape:window-maximized="1"
     inkscape:current-layer="layer1" />
  <defs
     id="defs4155" />
  <metadata
     id="metadata4158">
    <rdf:RDF>
      <cc:Work
         rdf:about="">
        <dc:format>image/svg+xml</dc:format>
        <dc:type
           rdf:resource="http://purl.org/dc/dcmitype/StillImage" />
        <dc:title />
      </cc:Work>
    </rdf:RDF>
  </metadata>
  <g
     transform="translate(-259.1866,-93.865941)"
     id="layer1">
    <path
       id="path4172"
       d="m 378.40926,349.36222 c 0.0204,-1.65 0.2445,-2.20394 0.49804,-1.23097 0.25354,0.97297 0.23687,2.32297 -0.0371,3 -0.27393,0.67703 -0.48137,-0.11903 -0.46099,-1.76903 z m 0,-8 c 0.0204,-1.65 0.2445,-2.20394 0.49804,-1.23097 0.25354,0.97297 0.23687,2.32297 -0.0371,3 -0.27393,0.67703 -0.48137,-0.11903 -0.46099,-1.76903 z m 0,-8 c 0.0204,-1.65 0.2445,-2.20394 0.49804,-1.23097 0.25354,0.97297 0.23687,2.32297 -0.0371,3 -0.27393,0.67703 -0.48137,-0.11903 -0.46099,-1.76903 z m 0,-8 c 0.0204,-1.65 0.2445,-2.20394 0.49804,-1.23097 0.25354,0.97297 0.23687,2.32297 -0.0371,3 -0.27393,0.67703 -0.48137,-0.11903 -0.46099,-1.76903 z m 0,-8 c 0.0204,-1.65 0.2445,-2.20394 0.49804,-1.23097 0.25354,0.97297 0.23687,2.32297 -0.0371,3 -0.27393,0.67703 -0.48137,-0.11903 -0.46099,-1.76903 z m 0,-8 c 0.0204,-1.65 0.2445,-2.20394 0.49804,-1.23097 0.25354,0.97297 0.23687,2.32297 -0.0371,3 -0.27393,0.67703 -0.48137,-0.11903 -0.46099,-1.76903 z m 0,-8 c 0.0204,-1.65 0.2445,-2.20394 0.49804,-1.23097 0.25354,0.97297 0.23687,2.32297 -0.0371,3 -0.27393,0.67703 -0.48137,-0.11903 -0.46099,-1.76903 z m 0,-8 c 0.0204,-1.65 0.2445,-2.20394 0.49804,-1.23097 0.25354,0.97297 0.23687,2.32297 -0.0371,3 -0.27393,0.67703 -0.48137,-0.11903 -0.46099,-1.76903 z m 0,-8 c 0.0204,-1.65 0.2445,-2.20394 0.49804,-1.23097 0.25354,0.97297 0.23687,2.32297 -0.0371,3 -0.27393,0.67703 -0.48137,-0.11903 -0.46099,-1.76903 z m 0,-8 c 0.0204,-1.65 0.2445,-2.20394 0.49804,-1.23097 0.25354,0.97297 0.23687,2.32297 -0.0371,3 -0.27393,0.67703 -0.48137,-0.11903 -0.46099,-1.76903 z m 0,-8 c 0.0204,-1.65 0.2445,-2.20394 0.49804,-1.23097 0.25354,0.97297 0.23687,2.32297 -0.0371,3 -0.27393,0.67703 -0.48137,-0.11903 -0.46099,-1.76903 z m 0,-8 c 0.0204,-1.65 0.2445,-2.20394 0.49804,-1.23097 0.25354,0.97297 0.23687,2.32297 -0.0371,3 -0.27393,0.67703 -0.48137,-0.11903 -0.46099,-1.76903 z m 0,-8 c 0.0204,-1.65 0.2445,-2.20394 0.49804,-1.23097 0.25354,0.97297 0.23687,2.32297 -0.0371,3 -0.27393,0.67703 -0.48137,-0.11903 -0.46099,-1.76903 z m 0,-8 c 0.0204,-1.65 0.2445,-2.20394 0.49804,-1.23097 0.25354,0.97297 0.23687,2.32297 -0.0371,3 -0.27393,0.67703 -0.48137,-0.11903 -0.46099,-1.76903 z m 0,-8 c 0.0204,-1.65 0.2445,-2.20394 0.49804,-1.23097 0.25354,0.97297 0.23687,2.32297 -0.0371,3 -0.27393,0.67703 -0.48137,-0.11903 -0.46099,-1.76903 z m 0,-8 c 0.0204,-1.65 0.2445,-2.20394 0.49804,-1.23097 0.25354,0.97297 0.23687,2.32297 -0.0371,3 -0.27393,0.67703 -0.48137,-0.11903 -0.46099,-1.76903 z m 0,-8 c 0.0204,-1.65 0.2445,-2.20394 0.49804,-1.23097 0.25354,0.97297 0.23687,2.32297 -0.0371,3 -0.27393,0.67703 -0.48137,-0.11903 -0.46099,-1.76903 z m 0,-8 c 0.0204,-1.65 0.2445,-2.20394 0.49804,-1.23097 0.25354,0.97297 0.23687,2.32297 -0.0371,3 -0.27393,0.67703 -0.48137,-0.11903 -0.46099,-1.76903 z m 0,-8 c 0.0204,-1.65 0.2445,-2.20394 0.49804,-1.23097 0.25354,0.97297 0.23687,2.32297 -0.0371,3 -0.27393,0.67703 -0.48137,-0.11903 -0.46099,-1.76903 z m 0,-8 c 0.0204,-1.65 0.2445,-2.20394 0.49804,-1.23097 0.25354,0.97297 0.23687,2.32297 -0.0371,3 -0.27393,0.67703 -0.48137,-0.11903 -0.46099,-1.76903 z m 0,-8 c 0.0204,-1.65 0.2445,-2.20394 0.49804,-1.23097 0.25354,0.97297 0.23687,2.32297 -0.0371,3 -0.27393,0.67703 -0.48137,-0.11903 -0.46099,-1.76903 z m 0,-8 c 0.0204,-1.65 0.2445,-2.20394 0.49804,-1.23097 0.25354,0.97297 0.23687,2.32297 -0.0371,3 -0.27393,0.67703 -0.48137,-0.11903 -0.46099,-1.76903 z m 0,-8 c 0.0204,-1.65 0.2445,-2.20394 0.49804,-1.23097 0.25354,0.97297 0.23687,2.32297 -0.0371,3 -0.27393,0.67703 -0.48137,-0.11903 -0.46099,-1.76903 z m 0,-8 c 0.0204,-1.65 0.2445,-2.20394 0.49804,-1.23097 0.25354,0.97297 0.23687,2.32297 -0.0371,3 -0.27388,0.67703 -0.48132,-0.11903 -0.46094,-1.76903 z m 0,-8 c 0.0204,-1.65 0.2445,-2.20394 0.49804,-1.23097 0.25354,0.97297 0.23687,2.32297 -0.0371,3 -0.27388,0.67703 -0.48132,-0.11903 -0.46094,-1.76903 z m 0,-8 c 0.0204,-1.65 0.2445,-2.20394 0.49804,-1.23097 0.25354,0.97297 0.23687,2.32297 -0.0371,3 -0.27388,0.67703 -0.48132,-0.11903 -0.46094,-1.76903 z m 0,-8 c 0.0204,-1.65 0.2445,-2.20394 0.49804,-1.23097 0.25354,0.97297 0.23687,2.32297 -0.0371,3 -0.27388,0.67703 -0.48132,-0.11903 -0.46094,-1.76903 z m -1.44728,-8.03964 c -0.30638,-1.60272 -0.0727,-2.40388 0.63343,-2.17167 1.38801,0.45647 2.11505,4.71131 0.80503,4.71131 -0.52414,0 -1.17144,-1.14284 -1.43846,-2.53963 z m -2.54767,-6.66036 c -1.44583,-1.44583 -1.55957,-2.8 -0.23518,-2.8 0.53065,0 1.44648,0.9 2.03518,2 1.1788,2.20261 0.0876,2.68759 -1.8,0.8 z M 264.29267,123.7206 c -6.93429,-6.46028 -6.76995,-23.45886 0.27451,-28.392991 1.60532,-1.12441 5.47253,-1.46452 16.61964,-1.46165 12.73196,0.003 14.9303,0.24933 17.78663,1.99086 3.92095,2.39063 7.232,7.509691 7.23712,11.188981 0.003,2.15867 0.54163,2.76506 2.75374,3.10017 l 2.75,0.41659 -2.75,0.14983 c -2.13955,0.11657 -2.75083,0.64929 -2.75374,2.39983 -0.005,3.28772 -3.49515,8.47389 -7.23712,10.7554 -2.85725,1.74209 -5.05474,1.98759 -17.82058,1.99086 -13.50296,0.003 -14.72854,-0.15194 -16.8602,-2.13788 z m 14.90271,-7.74617 c 0.84802,-5.02759 0.87242,-8.45309 0.0904,-12.68366 -0.58928,-3.18773 -1.07142,-5.938221 -1.07142,-6.112211 0,-0.17399 -1.54571,-0.31634 -3.4349,-0.31634 -8.12836,0 -11.85081,3.912391 -11.85081,12.455511 0,9.16863 3.56436,13.18041 11.94536,13.44481 3.14327,0.0992 3.16567,0.064 4.32142,-6.78811 z m -15.28873,-5.47157 c -0.87285,-2.27462 0.17333,-2.64064 7.54765,-2.64064 6.03821,0 6.8647,0.22005 6.573,1.75 -0.27065,1.41949 -1.58323,1.80531 -6.94989,2.04288 -5.04614,0.22337 -6.74781,-0.0501 -7.17076,-1.15224 z m 32.82948,9.93702 c 7.71103,-5.05246 7.71103,-16.10286 0,-21.155321 -1.34768,-0.88303 -5.18195,-1.85321 -8.5206,-2.15595 l -6.07028,-0.55043 0.78453,4.392021 c 0.93869,5.25507 0.93414,10.6623 -0.0145,17.2809 l -0.70075,4.88888 6.03566,-0.54729 c 3.31961,-0.30101 7.1383,-1.26978 8.48598,-2.15281 z m 72.45812,-0.10183 c -0.69572,-0.83829 -0.98669,-1.80241 -0.64661,-2.1425 0.72629,-0.72629 3.66667,1.51036 3.66667,2.78912 0,1.37744 -1.62985,1.02848 -3.02006,-0.64662 z m -6.25097,-4.5677 c -2.43631,-1.41836 -1.1635,-3.21105 1.33172,-1.87565 1.06662,0.57084 1.93931,1.47205 1.93931,2.0027 0,1.22243 -1.02117,1.18276 -3.27103,-0.12705 z m -6.47897,-2.68787 c -1.2375,-0.19765 -2.25,-0.77806 -2.25,-1.28981 0,-1.28609 3.73127,-1.17428 4.54112,0.13608 0.8554,1.38406 0.44498,1.59073 -2.29112,1.15373 z m -9.75,-2.22026 c -0.35052,-0.56716 0.48962,-1 1.94098,-1 1.40746,0 2.55902,0.45 2.55902,1 0,0.55 -0.87344,1 -1.94098,1 -1.06754,0 -2.2191,-0.45 -2.55902,-1 z m -31.23097,-0.69299 c 0.97297,-0.25354 2.32297,-0.23687 3,0.0371 0.67703,0.27393 -0.11903,0.48137 -1.76903,0.46099 -1.65,-0.0204 -2.20394,-0.2445 -1.23097,-0.49804 z m 8,0 c 0.97297,-0.25354 2.32297,-0.23687 3,0.0371 0.67703,0.27393 -0.11903,0.48137 -1.76903,0.46099 -1.65,-0.0204 -2.20394,-0.2445 -1.23097,-0.49804 z m 8,0 c 0.97297,-0.25354 2.32297,-0.23687 3,0.0371 0.67703,0.27393 -0.11903,0.48137 -1.76903,0.46099 -1.65,-0.0204 -2.20394,-0.2445 -1.23097,-0.49804 z m 8,0 c 0.97297,-0.25354 2.32297,-0.23687 3,0.0371 0.67703,0.27393 -0.11903,0.48137 -1.76903,0.46099 -1.65,-0.0204 -2.20394,-0.2445 -1.23097,-0.49804 z"
       style="fill:#7d7872;fill-opacity:1" />
  </g>
</svg>
